<?xml version="1.0" encoding="UTF-8"?>
<!DOCTYPE svg PUBLIC "-//W3C//DTD SVG 1.1//EN" "http://www.w3.org/Graphics/SVG/1.1/DTD/svg11.dtd">
<svg xmlns="http://www.w3.org/2000/svg" version="1.1" width="64px" height="64px" style="shape-rendering:geometricPrecision; text-rendering:geometricPrecision; image-rendering:optimizeQuality; fill-rule:evenodd; clip-rule:evenodd" xmlns:xlink="http://www.w3.org/1999/xlink">
<g><path style="opacity:0.87" fill="#231816" d="M 28.5,21.5 C 22.4388,11.6973 25.1055,7.1973 36.5,8C 42.4846,17.51 39.8179,22.01 28.5,21.5 Z M 30.5,12.5 C 31.8333,12.5 33.1667,12.5 34.5,12.5C 34.5,13.8333 34.5,15.1667 34.5,16.5C 33.1667,16.5 31.8333,16.5 30.5,16.5C 30.5,15.1667 30.5,13.8333 30.5,12.5 Z"/></g>
<g><path style="opacity:0.87" fill="#231715" d="M 28.5,21.5 C 34.5433,21.8838 37.5433,25.2171 37.5,31.5C 39.8268,31.6646 41.9935,32.3313 44,33.5C 44.624,35.4645 44.124,37.1311 42.5,38.5C 39.8747,37.2361 37.2081,36.0695 34.5,35C 33.1341,33.4002 32.1341,31.5668 31.5,29.5C 30.5815,31.7576 29.9148,34.0909 29.5,36.5C 32.9898,42.8049 36.9898,48.8049 41.5,54.5C 38.7185,55.952 36.2185,55.6187 34,53.5C 31,49.1667 28,44.8333 25,40.5C 24.6966,35.7238 25.03,31.0572 26,26.5C 22.8007,29.416 21.1341,33.0827 21,37.5C 19.6667,38.8333 18.3333,38.8333 17,37.5C 15.7262,28.2981 19.5595,22.9648 28.5,21.5 Z"/></g>
<g><path style="opacity:0.85" fill="#221715" d="M 23.5,43.5 C 26.7537,44.673 27.9204,47.0063 27,50.5C 25.2294,55.2083 22.0628,56.5417 17.5,54.5C 20.4054,51.2781 22.4054,47.6114 23.5,43.5 Z"/></g>
</svg>
